# Blender v2.91.2 OBJ File: 'epuck_orientation.blend'
# www.blender.org
mtllib epuck_orientation.mtl
o Cube
v -0.000094 -0.008921 -0.830354
v -0.000094 0.008921 0.294342
v -0.000094 -0.008921 0.294342
v -0.000094 0.008921 -0.830354
v -0.000094 -0.008921 -0.495210
v -0.000094 0.008921 -0.495210
v -0.305639 -0.008921 -0.495210
v -0.305639 0.008921 -0.495210
v 0.292705 0.008921 -0.495210
v -0.006467 0.008921 -0.495210
v 0.292705 -0.008921 -0.495210
v -0.000094 0.008921 -0.126177
v -0.120036 -0.008921 0.294342
v -0.120036 0.008921 -0.495210
v -0.120036 0.008921 0.294342
v -0.120036 -0.008921 -0.495210
v -0.120036 0.008921 -0.126177
v 0.127767 0.008921 0.294342
v 0.127767 -0.008921 -0.495210
v 0.127767 -0.008921 0.294342
v 0.127767 0.008921 -0.495210
v 0.127767 0.008921 -0.126177
vt 0.294063 0.550452
vt 0.269234 0.550452
vt 0.249986 0.550452
vt 0.000000 0.000000
vt 0.231930 0.550452
vt 0.249986 0.750000
vt 0.231930 0.750000
vt 0.375000 0.855766
vt 0.625000 0.855766
vt 0.625000 0.875014
vt 0.375000 0.875014
vt 0.730766 0.650226
vt 0.750014 0.650226
vt 0.750014 0.750000
vt 0.730766 0.750000
vt 0.203990 0.550452
vt 0.000000 0.000000
vt 0.000000 0.000000
vt 0.000000 0.000000
vt 0.000000 0.000000
vt 0.000000 0.000000
vt 0.000000 0.000000
vt 0.730766 0.550452
vt 0.750014 0.550452
vt 0.768070 0.550452
vt 0.768070 0.650226
vt 0.768070 0.750000
vt 0.625000 0.893070
vt 0.375000 0.893070
vt 0.269234 0.750000
vn 0.0000 -1.0000 -0.0000
vn 0.0000 0.0000 1.0000
vn 0.0000 1.0000 0.0000
vn 1.0000 0.0000 0.0000
vn -0.7390 0.0000 -0.6737
vn 0.7531 0.0000 -0.6579
vn -1.0000 0.0000 0.0000
usemtl Material
s off
f 11/1/1 19/2/1 5/3/1 1/4/1
f 16/5/1 5/3/1 3/6/1 13/7/1
f 20/8/2 18/9/2 2/10/2 3/11/2
f 22/12/3 12/13/3 2/14/3 18/15/3
f 5/3/1 16/5/1 7/16/1 1/4/1
f 7/16/2 16/5/2 14/17/2 8/18/2
f 18/9/4 20/8/4 19/2/4 21/19/4
f 9/20/3 4/21/3 8/18/3 10/22/3
f 8/18/5 4/21/5 1/4/5 7/16/5
f 9/20/6 11/1/6 1/4/6 4/21/6
f 21/23/3 6/24/3 12/13/3 22/12/3
f 6/24/3 14/25/3 17/26/3 12/13/3
f 12/13/3 17/26/3 15/27/3 2/14/3
f 3/11/2 2/10/2 15/28/2 13/29/2
f 15/28/7 14/17/7 16/5/7 13/29/7
f 5/3/1 19/2/1 20/30/1 3/6/1
f 11/1/2 9/20/2 21/19/2 19/2/2
l 4 6
