# Blender v2.91.2 OBJ File: 'ir.blend'
# www.blender.org
mtllib ir.mtl
o Cube
v 0.006211 0.005820 0.002341
v 0.006211 -0.006383 0.004666
v 0.006211 0.006383 0.005294
v 0.006211 -0.005820 0.007619
v -0.006211 0.005820 0.002341
v -0.006211 -0.006383 0.004666
v -0.006211 0.006383 0.005294
v -0.006211 -0.005820 0.007619
v -0.000029 0.017066 0.001774
v -0.000029 0.003583 0.004614
v -0.000069 0.017065 0.001771
v -0.000069 0.003582 0.004611
v -0.000107 0.017063 0.001759
v -0.000107 0.003580 0.004599
v -0.000142 0.017060 0.001740
v -0.000142 0.003577 0.004580
v -0.000173 0.017055 0.001714
v -0.000173 0.003572 0.004554
v -0.000199 0.017049 0.001683
v -0.000199 0.003566 0.004523
v -0.000218 0.017043 0.001647
v -0.000218 0.003560 0.004487
v -0.000230 0.017036 0.001608
v -0.000230 0.003553 0.004448
v -0.000233 0.017028 0.001568
v -0.000233 0.003545 0.004408
v -0.000230 0.017021 0.001528
v -0.000230 0.003538 0.004368
v -0.000218 0.017014 0.001489
v -0.000218 0.003531 0.004329
v -0.000199 0.017008 0.001453
v -0.000199 0.003524 0.004293
v -0.000173 0.017002 0.001422
v -0.000173 0.003519 0.004262
v -0.000142 0.016997 0.001396
v -0.000142 0.003514 0.004236
v -0.000107 0.016994 0.001377
v -0.000107 0.003511 0.004217
v -0.000069 0.016992 0.001365
v -0.000069 0.003509 0.004205
v -0.000029 0.016991 0.001361
v -0.000029 0.003508 0.004201
v 0.000011 0.016992 0.001365
v 0.000011 0.003509 0.004205
v 0.000050 0.016994 0.001377
v 0.000050 0.003511 0.004217
v 0.000085 0.016997 0.001396
v 0.000085 0.003514 0.004236
v 0.000116 0.017002 0.001422
v 0.000116 0.003519 0.004262
v 0.000142 0.017008 0.001453
v 0.000142 0.003524 0.004293
v 0.000161 0.017014 0.001489
v 0.000161 0.003531 0.004329
v 0.000172 0.017021 0.001528
v 0.000172 0.003538 0.004368
v 0.000176 0.017028 0.001568
v 0.000176 0.003545 0.004408
v 0.000172 0.017036 0.001608
v 0.000172 0.003553 0.004448
v 0.000161 0.017043 0.001647
v 0.000161 0.003560 0.004487
v 0.000142 0.017049 0.001683
v 0.000142 0.003566 0.004523
v 0.000116 0.017055 0.001714
v 0.000116 0.003572 0.004554
v 0.000085 0.017060 0.001740
v 0.000085 0.003577 0.004580
v 0.000050 0.017063 0.001759
v 0.000050 0.003580 0.004599
v 0.000011 0.017065 0.001771
v 0.000011 0.003582 0.004611
v 0.003113 0.017010 0.001673
v 0.003113 0.002559 0.004717
v 0.003073 0.017009 0.001669
v 0.003073 0.002559 0.004713
v 0.003034 0.017007 0.001658
v 0.003034 0.002557 0.004701
v 0.002999 0.017004 0.001638
v 0.002999 0.002553 0.004682
v 0.002968 0.016999 0.001613
v 0.002968 0.002548 0.004656
v 0.002942 0.016993 0.001581
v 0.002942 0.002543 0.004625
v 0.002924 0.016987 0.001545
v 0.002924 0.002536 0.004589
v 0.002912 0.016980 0.001507
v 0.002912 0.002529 0.004550
v 0.002908 0.016972 0.001466
v 0.002908 0.002522 0.004510
v 0.002912 0.016965 0.001426
v 0.002912 0.002514 0.004469
v 0.002924 0.016958 0.001387
v 0.002924 0.002507 0.004431
v 0.002942 0.016951 0.001351
v 0.002942 0.002501 0.004395
v 0.002968 0.016946 0.001319
v 0.002968 0.002495 0.004363
v 0.002999 0.016941 0.001294
v 0.002999 0.002490 0.004337
v 0.003034 0.016937 0.001275
v 0.003034 0.002487 0.004318
v 0.003073 0.016935 0.001263
v 0.003073 0.002485 0.004306
v 0.003113 0.016935 0.001259
v 0.003113 0.002484 0.004303
v 0.003153 0.016935 0.001263
v 0.003153 0.002485 0.004306
v 0.003191 0.016937 0.001275
v 0.003191 0.002487 0.004318
v 0.003227 0.016941 0.001294
v 0.003227 0.002490 0.004337
v 0.003258 0.016946 0.001319
v 0.003258 0.002495 0.004363
v 0.003283 0.016951 0.001351
v 0.003283 0.002501 0.004395
v 0.003302 0.016958 0.001387
v 0.003302 0.002507 0.004431
v 0.003314 0.016965 0.001426
v 0.003314 0.002514 0.004469
v 0.003318 0.016972 0.001466
v 0.003318 0.002522 0.004510
v 0.003314 0.016980 0.001507
v 0.003314 0.002529 0.004550
v 0.003302 0.016987 0.001545
v 0.003302 0.002536 0.004589
v 0.003283 0.016993 0.001581
v 0.003283 0.002543 0.004625
v 0.003258 0.016999 0.001613
v 0.003258 0.002548 0.004656
v 0.003227 0.017004 0.001638
v 0.003227 0.002553 0.004682
v 0.003191 0.017007 0.001658
v 0.003191 0.002557 0.004701
v 0.003153 0.017009 0.001669
v 0.003153 0.002559 0.004713
v -0.003102 0.017009 0.001819
v -0.003102 0.003953 0.004569
v -0.003142 0.017008 0.001815
v -0.003142 0.003953 0.004565
v -0.003180 0.017006 0.001804
v -0.003180 0.003951 0.004553
v -0.003215 0.017002 0.001784
v -0.003215 0.003947 0.004534
v -0.003247 0.016998 0.001759
v -0.003247 0.003942 0.004509
v -0.003272 0.016992 0.001728
v -0.003272 0.003937 0.004477
v -0.003291 0.016985 0.001692
v -0.003291 0.003930 0.004442
v -0.003303 0.016978 0.001653
v -0.003303 0.003923 0.004403
v -0.003307 0.016971 0.001613
v -0.003307 0.003916 0.004363
v -0.003303 0.016964 0.001573
v -0.003303 0.003909 0.004323
v -0.003291 0.016957 0.001534
v -0.003291 0.003902 0.004284
v -0.003272 0.016950 0.001498
v -0.003272 0.003895 0.004248
v -0.003247 0.016945 0.001467
v -0.003247 0.003889 0.004217
v -0.003215 0.016940 0.001442
v -0.003215 0.003885 0.004191
v -0.003180 0.016936 0.001422
v -0.003180 0.003881 0.004172
v -0.003142 0.016934 0.001411
v -0.003142 0.003879 0.004161
v -0.003102 0.016934 0.001407
v -0.003102 0.003878 0.004157
v -0.003062 0.016934 0.001411
v -0.003062 0.003879 0.004161
v -0.003023 0.016936 0.001422
v -0.003023 0.003881 0.004172
v -0.002988 0.016940 0.001442
v -0.002988 0.003885 0.004191
v -0.002957 0.016945 0.001467
v -0.002957 0.003889 0.004217
v -0.002931 0.016950 0.001498
v -0.002931 0.003895 0.004248
v -0.002912 0.016957 0.001534
v -0.002912 0.003902 0.004284
v -0.002901 0.016964 0.001573
v -0.002901 0.003909 0.004323
v -0.002897 0.016971 0.001613
v -0.002897 0.003916 0.004363
v -0.002901 0.016978 0.001653
v -0.002901 0.003923 0.004403
v -0.002912 0.016985 0.001692
v -0.002912 0.003930 0.004442
v -0.002931 0.016992 0.001728
v -0.002931 0.003937 0.004477
v -0.002957 0.016998 0.001759
v -0.002957 0.003942 0.004509
v -0.002988 0.017002 0.001784
v -0.002988 0.003947 0.004534
v -0.003023 0.017006 0.001804
v -0.003023 0.003951 0.004553
v -0.003062 0.017008 0.001815
v -0.003062 0.003953 0.004565
vt 0.625000 0.500000
vt 0.875000 0.500000
vt 0.875000 0.750000
vt 0.625000 0.750000
vt 0.375000 0.750000
vt 0.625000 1.000000
vt 0.375000 1.000000
vt 0.375000 0.000000
vt 0.625000 0.000000
vt 0.625000 0.250000
vt 0.375000 0.250000
vt 0.125000 0.500000
vt 0.375000 0.500000
vt 0.125000 0.750000
vt 1.000000 0.500000
vt 1.000000 1.000000
vt 0.968750 1.000000
vt 0.968750 0.500000
vt 0.937500 1.000000
vt 0.937500 0.500000
vt 0.906250 1.000000
vt 0.906250 0.500000
vt 0.875000 1.000000
vt 0.875000 0.500000
vt 0.843750 1.000000
vt 0.843750 0.500000
vt 0.812500 1.000000
vt 0.812500 0.500000
vt 0.781250 1.000000
vt 0.781250 0.500000
vt 0.750000 1.000000
vt 0.750000 0.500000
vt 0.718750 1.000000
vt 0.718750 0.500000
vt 0.687500 1.000000
vt 0.687500 0.500000
vt 0.656250 1.000000
vt 0.656250 0.500000
vt 0.625000 1.000000
vt 0.625000 0.500000
vt 0.593750 1.000000
vt 0.593750 0.500000
vt 0.562500 1.000000
vt 0.562500 0.500000
vt 0.531250 1.000000
vt 0.531250 0.500000
vt 0.500000 1.000000
vt 0.500000 0.500000
vt 0.468750 1.000000
vt 0.468750 0.500000
vt 0.437500 1.000000
vt 0.437500 0.500000
vt 0.406250 1.000000
vt 0.406250 0.500000
vt 0.375000 1.000000
vt 0.375000 0.500000
vt 0.343750 1.000000
vt 0.343750 0.500000
vt 0.312500 1.000000
vt 0.312500 0.500000
vt 0.281250 1.000000
vt 0.281250 0.500000
vt 0.250000 1.000000
vt 0.250000 0.500000
vt 0.218750 1.000000
vt 0.218750 0.500000
vt 0.187500 1.000000
vt 0.187500 0.500000
vt 0.156250 1.000000
vt 0.156250 0.500000
vt 0.125000 1.000000
vt 0.125000 0.500000
vt 0.093750 1.000000
vt 0.093750 0.500000
vt 0.062500 1.000000
vt 0.062500 0.500000
vt 0.296822 0.485388
vt 0.250000 0.490000
vt 0.203179 0.485389
vt 0.158156 0.471731
vt 0.116663 0.449553
vt 0.080295 0.419706
vt 0.050447 0.383337
vt 0.028269 0.341844
vt 0.014612 0.296822
vt 0.010000 0.250000
vt 0.014611 0.203179
vt 0.028269 0.158156
vt 0.050447 0.116663
vt 0.080294 0.080294
vt 0.116663 0.050447
vt 0.158156 0.028269
vt 0.203178 0.014612
vt 0.250000 0.010000
vt 0.296822 0.014612
vt 0.341844 0.028269
vt 0.383337 0.050447
vt 0.419706 0.080294
vt 0.449553 0.116663
vt 0.471731 0.158156
vt 0.485388 0.203178
vt 0.490000 0.250000
vt 0.485388 0.296822
vt 0.471731 0.341844
vt 0.449553 0.383337
vt 0.419706 0.419706
vt 0.383337 0.449553
vt 0.341844 0.471731
vt 0.031250 1.000000
vt 0.031250 0.500000
vt 0.000000 1.000000
vt 0.000000 0.500000
vt 0.750000 0.490000
vt 0.796822 0.485388
vt 0.841844 0.471731
vt 0.883337 0.449553
vt 0.919706 0.419706
vt 0.949553 0.383337
vt 0.971731 0.341844
vt 0.985388 0.296822
vt 0.990000 0.250000
vt 0.985388 0.203178
vt 0.971731 0.158156
vt 0.949553 0.116663
vt 0.919706 0.080294
vt 0.883337 0.050447
vt 0.841844 0.028269
vt 0.796822 0.014612
vt 0.750000 0.010000
vt 0.703178 0.014612
vt 0.658156 0.028269
vt 0.616663 0.050447
vt 0.580294 0.080294
vt 0.550447 0.116663
vt 0.528269 0.158156
vt 0.514611 0.203179
vt 0.510000 0.250000
vt 0.514612 0.296822
vt 0.528269 0.341844
vt 0.550447 0.383337
vt 0.580295 0.419706
vt 0.616663 0.449553
vt 0.658156 0.471731
vt 0.703179 0.485389
vt 1.000000 0.500000
vt 1.000000 1.000000
vt 0.968750 1.000000
vt 0.968750 0.500000
vt 0.937500 1.000000
vt 0.937500 0.500000
vt 0.906250 1.000000
vt 0.906250 0.500000
vt 0.875000 1.000000
vt 0.875000 0.500000
vt 0.843750 1.000000
vt 0.843750 0.500000
vt 0.812500 1.000000
vt 0.812500 0.500000
vt 0.781250 1.000000
vt 0.781250 0.500000
vt 0.750000 1.000000
vt 0.750000 0.500000
vt 0.718750 1.000000
vt 0.718750 0.500000
vt 0.687500 1.000000
vt 0.687500 0.500000
vt 0.656250 1.000000
vt 0.656250 0.500000
vt 0.625000 1.000000
vt 0.625000 0.500000
vt 0.593750 1.000000
vt 0.593750 0.500000
vt 0.562500 1.000000
vt 0.562500 0.500000
vt 0.531250 1.000000
vt 0.531250 0.500000
vt 0.500000 1.000000
vt 0.500000 0.500000
vt 0.468750 1.000000
vt 0.468750 0.500000
vt 0.437500 1.000000
vt 0.437500 0.500000
vt 0.406250 1.000000
vt 0.406250 0.500000
vt 0.375000 1.000000
vt 0.375000 0.500000
vt 0.343750 1.000000
vt 0.343750 0.500000
vt 0.312500 1.000000
vt 0.312500 0.500000
vt 0.281250 1.000000
vt 0.281250 0.500000
vt 0.250000 1.000000
vt 0.250000 0.500000
vt 0.218750 1.000000
vt 0.218750 0.500000
vt 0.187500 1.000000
vt 0.187500 0.500000
vt 0.156250 1.000000
vt 0.156250 0.500000
vt 0.125000 1.000000
vt 0.125000 0.500000
vt 0.093750 1.000000
vt 0.093750 0.500000
vt 0.062500 1.000000
vt 0.062500 0.500000
vt 0.296822 0.485388
vt 0.250000 0.490000
vt 0.203179 0.485389
vt 0.158156 0.471731
vt 0.116663 0.449553
vt 0.080295 0.419706
vt 0.050447 0.383337
vt 0.028269 0.341844
vt 0.014612 0.296822
vt 0.010000 0.250000
vt 0.014611 0.203179
vt 0.028269 0.158156
vt 0.050447 0.116663
vt 0.080294 0.080294
vt 0.116663 0.050447
vt 0.158156 0.028269
vt 0.203178 0.014612
vt 0.250000 0.010000
vt 0.296822 0.014612
vt 0.341844 0.028269
vt 0.383337 0.050447
vt 0.419706 0.080294
vt 0.449553 0.116663
vt 0.471731 0.158156
vt 0.485388 0.203178
vt 0.490000 0.250000
vt 0.485388 0.296822
vt 0.471731 0.341844
vt 0.449553 0.383337
vt 0.419706 0.419706
vt 0.383337 0.449553
vt 0.341844 0.471731
vt 0.031250 1.000000
vt 0.031250 0.500000
vt 0.000000 1.000000
vt 0.000000 0.500000
vt 0.750000 0.490000
vt 0.796822 0.485388
vt 0.841844 0.471731
vt 0.883337 0.449553
vt 0.919706 0.419706
vt 0.949553 0.383337
vt 0.971731 0.341844
vt 0.985388 0.296822
vt 0.990000 0.250000
vt 0.985388 0.203178
vt 0.971731 0.158156
vt 0.949553 0.116663
vt 0.919706 0.080294
vt 0.883337 0.050447
vt 0.841844 0.028269
vt 0.796822 0.014612
vt 0.750000 0.010000
vt 0.703178 0.014612
vt 0.658156 0.028269
vt 0.616663 0.050447
vt 0.580294 0.080294
vt 0.550447 0.116663
vt 0.528269 0.158156
vt 0.514611 0.203179
vt 0.510000 0.250000
vt 0.514612 0.296822
vt 0.528269 0.341844
vt 0.550447 0.383337
vt 0.580295 0.419706
vt 0.616663 0.449553
vt 0.658156 0.471731
vt 0.703179 0.485389
vt 1.000000 0.500000
vt 1.000000 1.000000
vt 0.968750 1.000000
vt 0.968750 0.500000
vt 0.937500 1.000000
vt 0.937500 0.500000
vt 0.906250 1.000000
vt 0.906250 0.500000
vt 0.875000 1.000000
vt 0.875000 0.500000
vt 0.843750 1.000000
vt 0.843750 0.500000
vt 0.812500 1.000000
vt 0.812500 0.500000
vt 0.781250 1.000000
vt 0.781250 0.500000
vt 0.750000 1.000000
vt 0.750000 0.500000
vt 0.718750 1.000000
vt 0.718750 0.500000
vt 0.687500 1.000000
vt 0.687500 0.500000
vt 0.656250 1.000000
vt 0.656250 0.500000
vt 0.625000 1.000000
vt 0.625000 0.500000
vt 0.593750 1.000000
vt 0.593750 0.500000
vt 0.562500 1.000000
vt 0.562500 0.500000
vt 0.531250 1.000000
vt 0.531250 0.500000
vt 0.500000 1.000000
vt 0.500000 0.500000
vt 0.468750 1.000000
vt 0.468750 0.500000
vt 0.437500 1.000000
vt 0.437500 0.500000
vt 0.406250 1.000000
vt 0.406250 0.500000
vt 0.375000 1.000000
vt 0.375000 0.500000
vt 0.343750 1.000000
vt 0.343750 0.500000
vt 0.312500 1.000000
vt 0.312500 0.500000
vt 0.281250 1.000000
vt 0.281250 0.500000
vt 0.250000 1.000000
vt 0.250000 0.500000
vt 0.218750 1.000000
vt 0.218750 0.500000
vt 0.187500 1.000000
vt 0.187500 0.500000
vt 0.156250 1.000000
vt 0.156250 0.500000
vt 0.125000 1.000000
vt 0.125000 0.500000
vt 0.093750 1.000000
vt 0.093750 0.500000
vt 0.062500 1.000000
vt 0.062500 0.500000
vt 0.296822 0.485388
vt 0.250000 0.490000
vt 0.203179 0.485389
vt 0.158156 0.471731
vt 0.116663 0.449553
vt 0.080295 0.419706
vt 0.050447 0.383337
vt 0.028269 0.341844
vt 0.014612 0.296822
vt 0.010000 0.250000
vt 0.014611 0.203179
vt 0.028269 0.158156
vt 0.050447 0.116663
vt 0.080294 0.080294
vt 0.116663 0.050447
vt 0.158156 0.028269
vt 0.203178 0.014612
vt 0.250000 0.010000
vt 0.296822 0.014612
vt 0.341844 0.028269
vt 0.383337 0.050447
vt 0.419706 0.080294
vt 0.449553 0.116663
vt 0.471731 0.158156
vt 0.485388 0.203178
vt 0.490000 0.250000
vt 0.485388 0.296822
vt 0.471731 0.341844
vt 0.449553 0.383337
vt 0.419706 0.419706
vt 0.383337 0.449553
vt 0.341844 0.471731
vt 0.031250 1.000000
vt 0.031250 0.500000
vt 0.000000 1.000000
vt 0.000000 0.500000
vt 0.750000 0.490000
vt 0.796822 0.485388
vt 0.841844 0.471731
vt 0.883337 0.449553
vt 0.919706 0.419706
vt 0.949553 0.383337
vt 0.971731 0.341844
vt 0.985388 0.296822
vt 0.990000 0.250000
vt 0.985388 0.203178
vt 0.971731 0.158156
vt 0.949553 0.116663
vt 0.919706 0.080294
vt 0.883337 0.050447
vt 0.841844 0.028269
vt 0.796822 0.014612
vt 0.750000 0.010000
vt 0.703178 0.014612
vt 0.658156 0.028269
vt 0.616663 0.050447
vt 0.580294 0.080294
vt 0.550447 0.116663
vt 0.528269 0.158156
vt 0.514611 0.203179
vt 0.510000 0.250000
vt 0.514612 0.296822
vt 0.528269 0.341844
vt 0.550447 0.383337
vt 0.580295 0.419706
vt 0.616663 0.449553
vt 0.658156 0.471731
vt 0.703179 0.485389
vn 0.0000 0.9823 -0.1872
vn 0.0000 0.1872 0.9823
vn -1.0000 -0.0000 0.0000
vn 0.0000 -0.9823 0.1872
vn 1.0000 0.0000 0.0000
vn 0.0000 -0.1872 -0.9823
vn 0.1003 -0.2051 -0.9736
vn 0.2966 -0.1968 -0.9345
vn 0.4801 -0.1808 -0.8584
vn 0.6433 -0.1578 -0.7492
vn 0.7803 -0.1289 -0.6120
vn 0.8865 -0.0954 -0.4528
vn 0.9588 -0.0585 -0.2780
vn 0.9954 -0.0197 -0.0937
vn 0.9954 0.0197 0.0937
vn 0.9588 0.0585 0.2780
vn 0.8865 0.0954 0.4528
vn 0.7803 0.1289 0.6120
vn 0.6433 0.1578 0.7491
vn 0.4801 0.1808 0.8584
vn 0.2966 0.1968 0.9345
vn 0.1003 0.2051 0.9736
vn -0.1003 0.2051 0.9736
vn -0.2966 0.1968 0.9345
vn -0.4801 0.1808 0.8584
vn -0.6433 0.1578 0.7491
vn -0.7803 0.1289 0.6120
vn -0.8865 0.0954 0.4528
vn -0.9588 0.0585 0.2780
vn -0.9954 0.0197 0.0937
vn -0.9954 -0.0197 -0.0937
vn -0.9588 -0.0585 -0.2780
vn -0.8865 -0.0954 -0.4528
vn -0.7803 -0.1289 -0.6120
vn -0.6433 -0.1578 -0.7492
vn -0.4801 -0.1808 -0.8584
vn -0.0000 0.9839 -0.1789
vn -0.2966 -0.1968 -0.9345
vn -0.1003 -0.2051 -0.9736
vn 0.0000 -0.9839 0.1789
vn 0.1007 -0.2051 -0.9736
vn 0.2977 -0.1968 -0.9342
vn 0.4815 -0.1806 -0.8576
vn 0.6448 -0.1575 -0.7480
vn 0.7815 -0.1286 -0.6105
vn 0.8872 -0.0951 -0.4515
vn 0.9591 -0.0583 -0.2770
vn 0.9954 -0.0197 -0.0933
vn 0.9954 0.0197 0.0933
vn 0.9591 0.0583 0.2770
vn 0.8872 0.0951 0.4515
vn 0.7815 0.1286 0.6105
vn 0.6448 0.1575 0.7480
vn 0.4815 0.1806 0.8576
vn 0.2977 0.1968 0.9342
vn 0.1007 0.2051 0.9736
vn -0.1007 0.2051 0.9736
vn -0.2977 0.1968 0.9342
vn -0.4815 0.1806 0.8576
vn -0.6448 0.1575 0.7479
vn -0.7815 0.1286 0.6106
vn -0.8872 0.0951 0.4515
vn -0.9591 0.0583 0.2770
vn -0.9954 0.0197 0.0933
vn -0.9954 -0.0197 -0.0933
vn -0.9591 -0.0583 -0.2770
vn -0.8872 -0.0951 -0.4515
vn -0.7815 -0.1286 -0.6106
vn -0.6448 -0.1575 -0.7480
vn -0.4815 -0.1806 -0.8576
vn -0.2977 -0.1968 -0.9342
vn -0.1007 -0.2051 -0.9736
vn 0.1002 -0.2051 -0.9736
vn 0.2962 -0.1969 -0.9346
vn 0.4796 -0.1809 -0.8587
vn 0.6428 -0.1579 -0.7496
vn 0.7798 -0.1290 -0.6125
vn 0.8862 -0.0955 -0.4534
vn 0.9587 -0.0586 -0.2783
vn 0.9954 -0.0198 -0.0938
vn 0.9954 0.0198 0.0938
vn 0.9587 0.0586 0.2783
vn 0.8862 0.0955 0.4534
vn 0.7798 0.1290 0.6125
vn 0.6428 0.1579 0.7496
vn 0.4796 0.1809 0.8587
vn 0.2962 0.1969 0.9346
vn 0.1002 0.2051 0.9736
vn -0.1002 0.2051 0.9736
vn -0.2962 0.1969 0.9346
vn -0.4796 0.1809 0.8587
vn -0.6428 0.1579 0.7496
vn -0.7798 0.1290 0.6125
vn -0.8862 0.0955 0.4533
vn -0.9587 0.0586 0.2783
vn -0.9954 0.0198 0.0938
vn -0.9954 -0.0198 -0.0938
vn -0.9587 -0.0586 -0.2783
vn -0.8862 -0.0955 -0.4534
vn -0.7798 -0.1290 -0.6125
vn -0.6428 -0.1579 -0.7496
vn -0.4795 -0.1809 -0.8587
vn -0.2962 -0.1969 -0.9346
vn -0.1002 -0.2051 -0.9736
usemtl Material
s off
f 1/1/1 5/2/1 7/3/1 3/4/1
f 4/5/2 3/4/2 7/6/2 8/7/2
f 8/8/3 7/9/3 5/10/3 6/11/3
f 6/12/4 2/13/4 4/5/4 8/14/4
f 2/13/5 1/1/5 3/4/5 4/5/5
f 6/11/6 5/10/6 1/1/6 2/13/6
f 9/15/7 10/16/7 12/17/7 11/18/7
f 11/18/8 12/17/8 14/19/8 13/20/8
f 13/20/9 14/19/9 16/21/9 15/22/9
f 15/22/10 16/21/10 18/23/10 17/24/10
f 17/24/11 18/23/11 20/25/11 19/26/11
f 19/26/12 20/25/12 22/27/12 21/28/12
f 21/28/13 22/27/13 24/29/13 23/30/13
f 23/30/14 24/29/14 26/31/14 25/32/14
f 25/32/15 26/31/15 28/33/15 27/34/15
f 27/34/16 28/33/16 30/35/16 29/36/16
f 29/36/17 30/35/17 32/37/17 31/38/17
f 31/38/18 32/37/18 34/39/18 33/40/18
f 33/40/19 34/39/19 36/41/19 35/42/19
f 35/42/20 36/41/20 38/43/20 37/44/20
f 37/44/21 38/43/21 40/45/21 39/46/21
f 39/46/22 40/45/22 42/47/22 41/48/22
f 41/48/23 42/47/23 44/49/23 43/50/23
f 43/50/24 44/49/24 46/51/24 45/52/24
f 45/52/25 46/51/25 48/53/25 47/54/25
f 47/54/26 48/53/26 50/55/26 49/56/26
f 49/56/27 50/55/27 52/57/27 51/58/27
f 51/58/28 52/57/28 54/59/28 53/60/28
f 53/60/29 54/59/29 56/61/29 55/62/29
f 55/62/30 56/61/30 58/63/30 57/64/30
f 57/64/31 58/63/31 60/65/31 59/66/31
f 59/66/32 60/65/32 62/67/32 61/68/32
f 61/68/33 62/67/33 64/69/33 63/70/33
f 63/70/34 64/69/34 66/71/34 65/72/34
f 65/72/35 66/71/35 68/73/35 67/74/35
f 67/74/36 68/73/36 70/75/36 69/76/36
f 12/77/37 10/78/37 72/79/37 70/80/37 68/81/37 66/82/37 64/83/37 62/84/37 60/85/37 58/86/37 56/87/37 54/88/37 52/89/37 50/90/37 48/91/37 46/92/37 44/93/37 42/94/37 40/95/37 38/96/37 36/97/37 34/98/37 32/99/37 30/100/37 28/101/37 26/102/37 24/103/37 22/104/37 20/105/37 18/106/37 16/107/37 14/108/37
f 69/76/38 70/75/38 72/109/38 71/110/38
f 71/110/39 72/109/39 10/111/39 9/112/39
f 9/113/40 11/114/40 13/115/40 15/116/40 17/117/40 19/118/40 21/119/40 23/120/40 25/121/40 27/122/40 29/123/40 31/124/40 33/125/40 35/126/40 37/127/40 39/128/40 41/129/40 43/130/40 45/131/40 47/132/40 49/133/40 51/134/40 53/135/40 55/136/40 57/137/40 59/138/40 61/139/40 63/140/40 65/141/40 67/142/40 69/143/40 71/144/40
f 73/145/41 74/146/41 76/147/41 75/148/41
f 75/148/42 76/147/42 78/149/42 77/150/42
f 77/150/43 78/149/43 80/151/43 79/152/43
f 79/152/44 80/151/44 82/153/44 81/154/44
f 81/154/45 82/153/45 84/155/45 83/156/45
f 83/156/46 84/155/46 86/157/46 85/158/46
f 85/158/47 86/157/47 88/159/47 87/160/47
f 87/160/48 88/159/48 90/161/48 89/162/48
f 89/162/49 90/161/49 92/163/49 91/164/49
f 91/164/50 92/163/50 94/165/50 93/166/50
f 93/166/51 94/165/51 96/167/51 95/168/51
f 95/168/52 96/167/52 98/169/52 97/170/52
f 97/170/53 98/169/53 100/171/53 99/172/53
f 99/172/54 100/171/54 102/173/54 101/174/54
f 101/174/55 102/173/55 104/175/55 103/176/55
f 103/176/56 104/175/56 106/177/56 105/178/56
f 105/178/57 106/177/57 108/179/57 107/180/57
f 107/180/58 108/179/58 110/181/58 109/182/58
f 109/182/59 110/181/59 112/183/59 111/184/59
f 111/184/60 112/183/60 114/185/60 113/186/60
f 113/186/61 114/185/61 116/187/61 115/188/61
f 115/188/62 116/187/62 118/189/62 117/190/62
f 117/190/63 118/189/63 120/191/63 119/192/63
f 119/192/64 120/191/64 122/193/64 121/194/64
f 121/194/65 122/193/65 124/195/65 123/196/65
f 123/196/66 124/195/66 126/197/66 125/198/66
f 125/198/67 126/197/67 128/199/67 127/200/67
f 127/200/68 128/199/68 130/201/68 129/202/68
f 129/202/69 130/201/69 132/203/69 131/204/69
f 131/204/70 132/203/70 134/205/70 133/206/70
f 76/207/37 74/208/37 136/209/37 134/210/37 132/211/37 130/212/37 128/213/37 126/214/37 124/215/37 122/216/37 120/217/37 118/218/37 116/219/37 114/220/37 112/221/37 110/222/37 108/223/37 106/224/37 104/225/37 102/226/37 100/227/37 98/228/37 96/229/37 94/230/37 92/231/37 90/232/37 88/233/37 86/234/37 84/235/37 82/236/37 80/237/37 78/238/37
f 133/206/71 134/205/71 136/239/71 135/240/71
f 135/240/72 136/239/72 74/241/72 73/242/72
f 73/243/40 75/244/40 77/245/40 79/246/40 81/247/40 83/248/40 85/249/40 87/250/40 89/251/40 91/252/40 93/253/40 95/254/40 97/255/40 99/256/40 101/257/40 103/258/40 105/259/40 107/260/40 109/261/40 111/262/40 113/263/40 115/264/40 117/265/40 119/266/40 121/267/40 123/268/40 125/269/40 127/270/40 129/271/40 131/272/40 133/273/40 135/274/40
f 137/275/73 138/276/73 140/277/73 139/278/73
f 139/278/74 140/277/74 142/279/74 141/280/74
f 141/280/75 142/279/75 144/281/75 143/282/75
f 143/282/76 144/281/76 146/283/76 145/284/76
f 145/284/77 146/283/77 148/285/77 147/286/77
f 147/286/78 148/285/78 150/287/78 149/288/78
f 149/288/79 150/287/79 152/289/79 151/290/79
f 151/290/80 152/289/80 154/291/80 153/292/80
f 153/292/81 154/291/81 156/293/81 155/294/81
f 155/294/82 156/293/82 158/295/82 157/296/82
f 157/296/83 158/295/83 160/297/83 159/298/83
f 159/298/84 160/297/84 162/299/84 161/300/84
f 161/300/85 162/299/85 164/301/85 163/302/85
f 163/302/86 164/301/86 166/303/86 165/304/86
f 165/304/87 166/303/87 168/305/87 167/306/87
f 167/306/88 168/305/88 170/307/88 169/308/88
f 169/308/89 170/307/89 172/309/89 171/310/89
f 171/310/90 172/309/90 174/311/90 173/312/90
f 173/312/91 174/311/91 176/313/91 175/314/91
f 175/314/92 176/313/92 178/315/92 177/316/92
f 177/316/93 178/315/93 180/317/93 179/318/93
f 179/318/94 180/317/94 182/319/94 181/320/94
f 181/320/95 182/319/95 184/321/95 183/322/95
f 183/322/96 184/321/96 186/323/96 185/324/96
f 185/324/97 186/323/97 188/325/97 187/326/97
f 187/326/98 188/325/98 190/327/98 189/328/98
f 189/328/99 190/327/99 192/329/99 191/330/99
f 191/330/100 192/329/100 194/331/100 193/332/100
f 193/332/101 194/331/101 196/333/101 195/334/101
f 195/334/102 196/333/102 198/335/102 197/336/102
f 140/337/37 138/338/37 200/339/37 198/340/37 196/341/37 194/342/37 192/343/37 190/344/37 188/345/37 186/346/37 184/347/37 182/348/37 180/349/37 178/350/37 176/351/37 174/352/37 172/353/37 170/354/37 168/355/37 166/356/37 164/357/37 162/358/37 160/359/37 158/360/37 156/361/37 154/362/37 152/363/37 150/364/37 148/365/37 146/366/37 144/367/37 142/368/37
f 197/336/103 198/335/103 200/369/103 199/370/103
f 199/370/104 200/369/104 138/371/104 137/372/104
f 137/373/40 139/374/40 141/375/40 143/376/40 145/377/40 147/378/40 149/379/40 151/380/40 153/381/40 155/382/40 157/383/40 159/384/40 161/385/40 163/386/40 165/387/40 167/388/40 169/389/40 171/390/40 173/391/40 175/392/40 177/393/40 179/394/40 181/395/40 183/396/40 185/397/40 187/398/40 189/399/40 191/400/40 193/401/40 195/402/40 197/403/40 199/404/40
